<svg width="1024.09" height="654.98" xmlns="http://www.w3.org/2000/svg" xmlns:xlink="http://www.w3.org/1999/xlink">
 <defs>
  <linearGradient y2="0.00005" x2="0.5" y1="1.00011" x1="0.5" id="4e272d34-4a95-491b-8eeb-ec3c2b1ff143">
   <stop stop-opacity="0.25" stop-color="gray" offset="0"/>
   <stop stop-opacity="0.12" stop-color="gray" offset="0.54"/>
   <stop stop-opacity="0.1" stop-color="gray" offset="1"/>
  </linearGradient>
  <linearGradient xlink:href="#4e272d34-4a95-491b-8eeb-ec3c2b1ff143" gradientTransform="translate(131.32 -162.61) rotate(15.07)" y2="302.34" x2="711.17" y1="565.71" x1="711.17" id="dfe83c1b-cff5-4c37-a040-65f303183b02"/>
 </defs>
 <title>electric_car</title>
 <g>
  <title>background</title>
  <rect fill="none" id="canvas_background" height="656.98" width="1026.09" y="-1" x="-1"/>
 </g>
 <g>
  <title>Layer 1</title>
  <path id="svg_1" opacity="0.1" fill="#ffae63" d="m173.46667,-23.23666c-5.48,6.65 -7.59,16 -9.95,24.79c-19,70.84 -65.82,127.82 -119.14,168.52c-22.58,17.24 -50.07,40.36 -45.13,71.27c2.66,16.6 14.33,28.82 23,42.34c18.19,28.31 24.09,66.79 15.42,100.68c-9.86,38.56 -37.42,74.54 -28.89,113.53c5.26,24 23.12,41.08 40.29,55.76q40.18,34.33 82.92,64.32c19.1,13.4 39.42,26.44 61.68,28.14c19.6,1.5 38.8,-5.95 57.41,-13.3c16.26,-6.43 32.93,-13.12 46.06,-26c8.57,-8.41 15.4,-19.26 24.92,-26.14c22.36,-16.16 51.08,-5.92 76.72,1c60.5,16.24 125.25,10.31 182.82,-16.74c88.31,-41.5 155.62,-128.65 242,-175.41c37.14,-20.11 77.54,-32.59 111.93,-58.49a209.09,209.09 0 0 0 49.2,-53.24c26,-40.11 40.06,-91.25 36,-141.31s-26.81,-98.3 -62.54,-126.56c-38.25,-30.25 -86.56,-35.9 -130.08,-54.06c-44.92,-18.78 -84.9,-51.04 -129.39,-71.15a264.67,264.67 0 0 0 -228.31,5.11c-48.45,24.5 -97.54,81.66 -151.5,86c-38.44,3 -115.42,-35.48 -145.44,0.94z"/>
  <path id="svg_2" stroke-width="2" stroke-miterlimit="10" stroke="#535461" fill="none" d="m865.46334,209.74667s-14.56,-49.45 2.73,-85.84a78.1,78.1 0 0 0 6.32,-49a131.35,131.35 0 0 0 -6.94,-23"/>
  <path id="svg_3" fill="#ffae63" d="m878.38334,28.91667c0,6.06 -11,23.63 -11,23.63s-11,-17.57 -11,-23.63a11,11 0 1 1 21.94,0l0.06,0z"/>
  <path id="svg_4" fill="#ffae63" d="m896.47334,62.47667c-3.29,5.09 -22.09,13.88 -22.09,13.88s0.34,-20.71 3.63,-25.8a11,11 0 0 1 18.42,11.93l0.04,-0.01z"/>
  <path id="svg_5" fill="#ffae63" d="m895.68334,119.84667c-5.41,2.73 -26,0.84 -26,0.84s10.75,-17.71 16.16,-20.44a11,11 0 0 1 9.88,19.59l-0.04,0.01z"/>
  <path id="svg_6" fill="#ffae63" d="m885.31334,163.15667c-4.87,3.6 -25.53,5.23 -25.53,5.23s7.6,-19.27 12.48,-22.88a11,11 0 0 1 13,17.64l0.05,0.01z"/>
  <path id="svg_7" fill="#ffae63" d="m851.38334,77.52667c4.35,4.22 24.6,8.6 24.6,8.6s-5,-20.11 -9.31,-24.34a11,11 0 1 0 -15.29,15.74z"/>
  <path id="svg_8" fill="#ffae63" d="m839.89334,128.28667c5.41,2.73 26,0.84 26,0.84s-10.75,-17.71 -16.16,-20.44a11,11 0 0 0 -9.88,19.59l0.04,0.01z"/>
  <path id="svg_9" fill="#ffae63" d="m835.49334,179.15667c4.87,3.6 25.53,5.23 25.53,5.23s-7.6,-19.27 -12.48,-22.88a11,11 0 1 0 -13,17.64l-0.05,0.01z"/>
  <path id="svg_10" opacity="0.1" fill="#ffae63" d="m878.38334,28.91667c0,6.06 -11,23.63 -11,23.63s-11,-17.57 -11,-23.63a11,11 0 1 1 21.94,0l0.06,0z"/>
  <path id="svg_11" opacity="0.1" fill="#ffae63" d="m896.47334,62.47667c-3.29,5.09 -22.09,13.88 -22.09,13.88s0.34,-20.71 3.63,-25.8a11,11 0 0 1 18.42,11.93l0.04,-0.01z"/>
  <path id="svg_12" opacity="0.1" fill="#ffae63" d="m895.68334,119.84667c-5.41,2.73 -26,0.84 -26,0.84s10.75,-17.71 16.16,-20.44a11,11 0 0 1 9.88,19.59l-0.04,0.01z"/>
  <path id="svg_13" opacity="0.1" fill="#ffae63" d="m885.31334,163.15667c-4.87,3.6 -25.53,5.23 -25.53,5.23s7.6,-19.27 12.48,-22.88a11,11 0 0 1 13,17.64l0.05,0.01z"/>
  <path id="svg_14" opacity="0.1" fill="#ffae63" d="m851.38334,77.52667c4.35,4.22 24.6,8.6 24.6,8.6s-5,-20.11 -9.31,-24.34a11,11 0 1 0 -15.29,15.74z"/>
  <path id="svg_15" opacity="0.1" fill="#ffae63" d="m839.89334,128.28667c5.41,2.73 26,0.84 26,0.84s-10.75,-17.71 -16.16,-20.44a11,11 0 0 0 -9.88,19.59l0.04,0.01z"/>
  <path id="svg_16" opacity="0.1" fill="#ffae63" d="m835.49334,179.15667c4.87,3.6 25.53,5.23 25.53,5.23s-7.6,-19.27 -12.48,-22.88a11,11 0 1 0 -13,17.64l-0.05,0.01z"/>
  <path id="svg_17" stroke-width="2" stroke-miterlimit="10" stroke="#535461" fill="none" d="m926.46334,288.74667s-14.56,-49.45 2.73,-85.84a78.1,78.1 0 0 0 6.32,-49a131.35,131.35 0 0 0 -6.94,-23"/>
  <path id="svg_18" fill="#ffae63" d="m939.38334,107.91667c0,6.06 -11,23.63 -11,23.63s-11,-17.57 -11,-23.63a11,11 0 1 1 21.94,0l0.06,0z"/>
  <path id="svg_19" fill="#ffae63" d="m957.47334,141.47667c-3.29,5.09 -22.05,13.87 -22.05,13.87s0.34,-20.71 3.63,-25.8a11,11 0 1 1 18.42,11.93z"/>
  <path id="svg_20" fill="#ffae63" d="m956.68334,198.84667c-5.41,2.73 -26,0.84 -26,0.84s10.75,-17.71 16.16,-20.44a11,11 0 1 1 9.88,19.59l-0.04,0.01z"/>
  <path id="svg_21" fill="#ffae63" d="m946.31334,242.15667c-4.87,3.6 -25.53,5.23 -25.53,5.23s7.6,-19.27 12.48,-22.88a11,11 0 0 1 13,17.64l0.05,0.01z"/>
  <path id="svg_22" fill="#ffae63" d="m912.38334,156.52667c4.35,4.22 24.6,8.6 24.6,8.6s-5,-20.11 -9.31,-24.34a11,11 0 0 0 -15.29,15.74z"/>
  <path id="svg_23" fill="#ffae63" d="m900.89334,207.28667c5.41,2.73 26,0.84 26,0.84s-10.75,-17.71 -16.16,-20.44a11,11 0 0 0 -9.88,19.59l0.04,0.01z"/>
  <path id="svg_24" fill="#ffae63" d="m896.49334,258.15667c4.87,3.6 25.53,5.23 25.53,5.23s-7.6,-19.27 -12.48,-22.88a11,11 0 1 0 -13,17.64l-0.05,0.01z"/>
  <path id="svg_25" opacity="0.1" fill="#ffae63" d="m939.38334,107.91667c0,6.06 -11,23.63 -11,23.63s-11,-17.57 -11,-23.63a11,11 0 1 1 21.94,0l0.06,0z"/>
  <path id="svg_26" opacity="0.1" fill="#ffae63" d="m957.47334,141.47667c-3.29,5.09 -22.05,13.87 -22.05,13.87s0.34,-20.71 3.63,-25.8a11,11 0 1 1 18.42,11.93z"/>
  <path id="svg_27" opacity="0.1" fill="#ffae63" d="m956.68334,198.84667c-5.41,2.73 -26,0.84 -26,0.84s10.75,-17.71 16.16,-20.44a11,11 0 1 1 9.88,19.59l-0.04,0.01z"/>
  <path id="svg_28" opacity="0.1" fill="#ffae63" d="m946.31334,242.15667c-4.87,3.6 -25.53,5.23 -25.53,5.23s7.6,-19.27 12.48,-22.88a11,11 0 0 1 13,17.64l0.05,0.01z"/>
  <path id="svg_29" opacity="0.1" fill="#ffae63" d="m912.38334,156.52667c4.35,4.22 24.6,8.6 24.6,8.6s-5,-20.11 -9.31,-24.34a11,11 0 0 0 -15.29,15.74z"/>
  <path id="svg_30" opacity="0.1" fill="#ffae63" d="m900.89334,207.28667c5.41,2.73 26,0.84 26,0.84s-10.75,-17.71 -16.16,-20.44a11,11 0 0 0 -9.88,19.59l0.04,0.01z"/>
  <path id="svg_31" opacity="0.1" fill="#ffae63" d="m896.49334,258.15667c4.87,3.6 25.53,5.23 25.53,5.23s-7.6,-19.27 -12.48,-22.88a11,11 0 1 0 -13,17.64l-0.05,0.01z"/>
  <ellipse id="svg_32" opacity="0.1" fill="#ffae63" transform="rotate(-5.570000171661377 -143.37667846679688,-135.95332336425784) " ry="79.54" rx="494.14" cy="437.81667" cx="476.79333"/>
  <path id="svg_33" fill="url(#4e272d34-4a95-491b-8eeb-ec3c2b1ff143)" d="m978.56334,333.91667c18.49,-37.9 14.67,-99.59 12.7,-120.53c-0.43,-4.58 -0.77,-7.21 -0.77,-7.21s-16.3,-2.57 -10.29,-22.3c2.94,-9.66 -7.5,-15 -18.9,-17.93a133.12,133.12 0 0 0 -24.84,-3.51l-157.89,-9.75l0,0c-21.65,-34.36 -64.25,-28.84 -64.25,-28.84s-38,-3.95 -64.94,-4.36a72.51,72.51 0 0 0 -13.36,-9.33a44,44 0 0 0 -9.06,-4.13a25.67,25.67 0 0 0 -22.68,4.25a12.06,12.06 0 0 0 -3.69,4.29a11.75,11.75 0 0 0 -0.75,2.41a43.1,43.1 0 0 0 -1,4.29a7.39,7.39 0 0 1 -1,1.95c-1.08,1.53 -2.94,2.68 -3.18,4.53a3,3 0 0 0 0,0.32a3.36,3.36 0 0 0 -0.39,1.14a4.11,4.11 0 0 0 0.51,2.37c0.06,0.12 0.13,0.23 0.2,0.34a28.22,28.22 0 0 0 -3.23,6.2a10.35,10.35 0 0 0 -1.07,0.67l-0.3,0.22l0,0.61l-0.17,0.13l-0.37,9.85l0.21,0.16a29.16,29.16 0 0 0 13.56,22.76c0.13,0.63 0.25,1.27 0.37,1.94a52.86,52.86 0 0 1 0.74,9.78l-0.17,0c-4.7,-2 -12.74,0.94 -19.65,4.37l-89.52,0c17.46,-22.46 38.82,-39.88 38.82,-39.88l0,-19.74c-15.26,-0.76 -149.32,63.64 -178.71,77.86l-1.3,0.63l-151.05,4.68c-27.36,-0.17 -51.28,3.85 -72,10.4a204.89,204.89 0 0 0 -90.16,57.6c-17.84,19.58 -25.66,35.76 -25.66,35.76l0.17,1.36l-0.17,0.35l0.24,0.21l4.07,32.12l2.8,22.1c-19.46,12.58 5.75,17.62 5.75,17.62c24,20.58 62.61,19.73 62.61,19.73c9.43,12.87 36.88,11.15 36.88,11.15l144.09,0a349.13,349.13 0 0 1 9,-39.2c6.15,44.29 41.1,78.22 83.28,78.22a77.86,77.86 0 0 0 9.36,-0.57a77.86,77.86 0 0 0 9.36,0.57c42.67,0 77.93,-34.73 83.48,-79.76l7.05,0a157.16,157.16 0 0 1 -6.83,29.59c129.51,-37.74 370.52,-55.75 370.52,-55.75c1,-9.5 2.1,-18.68 3.29,-27.49c9.93,24.65 32.44,41.86 58.64,41.86a59.18,59.18 0 0 0 7.12,-0.44a59.18,59.18 0 0 0 7.12,0.44c31.11,0 57,-24.27 62.84,-56.45a147.11,147.11 0 0 1 1.32,17.13c-1.11,5.46 -2.08,8.95 -2.21,9.44q1.17,-2.14 2.22,-4.38c0,0.58 0,1.18 0,1.78c-0.24,1 -0.41,1.56 -0.46,1.75l0.44,-0.82c0,0.44 0,0.87 0,1.31c-0.1,0.04 0.43,-1.4 1.26,-3.87z"/>
  <rect id="svg_34" fill="#6f7d95" height="119.77" width="296.9" y="197.73667" x="666.55333"/>
  <polygon id="svg_35" fill="#4b5c7a" points="591.0633137226105,141.6466827392578 633.233357667923,236.11668395996094 716.7433063983917,231.0566864013672 720.1133625507355,192.2566680908203 722.6433308124542,146.70668029785156 604.5633137226105,138.2666778564453 591.0633137226105,141.6466827392578 "/>
  <path id="svg_36" fill="#ff4d52" d="m591.06334,141.64667s16,-15.18 35.43,-18.56s84.35,3.37 84.35,3.37l9.28,16l-1.74,7.62l-127.32,-8.43z"/>
  <rect id="svg_37" fill="#4b5c7a" height="87.72" width="299.43" y="190.14667" x="450.62333"/>
  <path id="svg_38" fill="url(#dfe83c1b-cff5-4c37-a040-65f303183b02)" d="m676.38334,249.82667c7.91,-26.45 -7.86,-43.83 -7.86,-43.83l-26.14,-18.24a1.23,1.23 0 0 1 -0.08,0.18a34,34 0 0 1 -7.11,-13.78c-0.08,-0.32 -0.15,-0.65 -0.23,-1a28.14,28.14 0 0 0 6.2,-6.35c4.26,-2.61 6.16,-6.81 6.88,-11a54.86,54.86 0 0 0 6.49,-13.13a23.33,23.33 0 0 0 0.66,-2.29a12,12 0 0 0 0.66,-4.49a12.28,12.28 0 0 0 -1.66,-4.8c-4.4,-8 -12.32,-13.57 -20.35,-18.11a43.3,43.3 0 0 0 -8.91,-4.06a25.25,25.25 0 0 0 -22.3,4.18a11.86,11.86 0 0 0 -3.63,4.22a11.56,11.56 0 0 0 -0.74,2.37a42.39,42.39 0 0 0 -0.95,4.22a7.27,7.27 0 0 1 -0.94,1.91c-1.07,1.5 -2.89,2.63 -3.13,4.46a2.94,2.94 0 0 0 0,0.32a3.3,3.3 0 0 0 -0.38,1.12a4,4 0 0 0 0.5,2.33c0.06,0.12 0.13,0.23 0.2,0.34a27.76,27.76 0 0 0 -3.18,6.1a10.18,10.18 0 0 0 -1.06,0.66l-0.29,0.21l0,0.6l-0.17,0.13l-0.37,9.69l0.2,0.16a28.67,28.67 0 0 0 13.33,22.39c0.13,0.62 0.25,1.25 0.36,1.91a51.33,51.33 0 0 1 0.72,10.57a3.59,3.59 0 0 1 0,-0.92c-7.23,-3.27 -23,5.77 -29.35,9.77l0,0a12.05,12.05 0 0 0 -2.67,1.73l-0.11,0.08l0,0c-4.37,3.54 -13,13.38 -19.85,38.67c-9.5,35.29 -8.51,43.29 -15.43,51.47s-13.79,65.81 -13.79,65.81l13.93,3.75l1.78,-5.72c16.56,15.1 62.93,22.37 62.93,22.37l1.42,-4.41c7.11,2.56 19,-1.33 19,-1.33c17.38,-6.14 23.89,-21.72 36.5,-42.27s18.92,-75.99 18.92,-75.99zm-70.1,106.33l32.1,-99.57c2.91,15.46 -9.93,39.81 -11.07,55.73c-0.71,10.24 -12.63,30.59 -21.03,43.84z"/>
  <path id="svg_39" fill="#472727" d="m646.44334,145.05667s5.59,21.29 -11,25s-5.66,-9.57 -5.66,-9.57l16,-15.59l0.66,0.16z"/>
  <path id="svg_40" fill="#dde0e4" d="m577.08334,195.79667s-12.34,5 -21.41,38.68s-8.17,41.28 -14.7,49.11s-13.22,62.77 -13.22,62.77l13.06,3.52l11.37,-36.72l31.27,-97l-6.37,-20.36z"/>
  <path id="svg_41" opacity="0.05" d="m577.08334,195.79667s-12.34,5 -21.41,38.68s-8.17,41.28 -14.7,49.11s-13.22,62.77 -13.22,62.77l13.06,3.52l11.37,-36.72l31.27,-97l-6.37,-20.36z"/>
  <path id="svg_42" fill="#db8b8b" d="m645.60334,191.99667s-51.66,26.26 -44.1,9.13c3.74,-8.46 3.6,-17.23 2.51,-24a51.26,51.26 0 0 0 -3.25,-11.62s35.12,-27.78 33.06,-5.1a43.4,43.4 0 0 0 1,14.58c3.04,12.03 10.78,17.01 10.78,17.01z"/>
  <path id="svg_43" opacity="0.1" d="m634.82334,175.02667a27,27 0 0 1 -24,5a27.31,27.31 0 0 1 -6.85,-2.89a51.26,51.26 0 0 0 -3.25,-11.62s35.12,-27.78 33.06,-5.1a43.4,43.4 0 0 0 1.04,14.61z"/>
  <circle id="svg_44" fill="#db8b8b" transform="rotate(-74.93000030517578 94.62333679199229,745.7066650390626) " r="27.04" cy="1097.12665" cx="803.50333"/>
  <path id="svg_45" opacity="0.1" d="m604.68334,139.38667a6.45,6.45 0 0 1 -9,-2.37a3.88,3.88 0 0 1 -0.46,-2.22c0.23,-1.74 1.95,-2.82 3,-4.26c1.63,-2.33 1.32,-5.52 2.5,-8.11a11.4,11.4 0 0 1 3.42,-4a23.51,23.51 0 0 1 20.95,-4.08a39.94,39.94 0 0 1 8.34,3.83c7.52,4.29 14.93,9.54 19,17.17a11.72,11.72 0 0 1 1.54,4.57a13,13 0 0 1 -0.9,5.1a53.16,53.16 0 0 1 -6.23,12.67a9.76,9.76 0 0 0 -3.24,-2.61a3.34,3.34 0 0 0 -3.84,0.71c-0.87,1.11 -1.4,3.23 -2.72,2.73c-0.86,-0.32 -0.85,-1.51 -0.81,-2.43c0.18,-4 -2,-7.77 -4.93,-10.47s-6.56,-4.48 -10.14,-6.23c-2.57,-1.26 -6,-4.15 -8.82,-4.66c-3.5,-0.65 -5.15,3.11 -7.66,4.66z"/>
  <path id="svg_46" fill="#472727" d="m605.05334,138.01667a6.45,6.45 0 0 1 -9,-2.37a3.88,3.88 0 0 1 -0.46,-2.22c0.23,-1.74 1.95,-2.82 3,-4.26c1.63,-2.33 1.32,-5.52 2.5,-8.11a11.4,11.4 0 0 1 3.42,-4a23.51,23.51 0 0 1 20.95,-4.08a39.94,39.94 0 0 1 8.34,3.83c7.52,4.29 14.93,9.54 19,17.17a11.72,11.72 0 0 1 1.54,4.57a13,13 0 0 1 -0.9,5.1a53.16,53.16 0 0 1 -6.23,12.67a9.76,9.76 0 0 0 -3.24,-2.61a3.34,3.34 0 0 0 -3.84,0.71c-0.87,1.11 -1.4,3.23 -2.72,2.73c-0.86,-0.32 -0.85,-1.51 -0.81,-2.43c0.18,-4 -2,-7.77 -4.93,-10.47s-6.56,-4.48 -10.14,-6.23c-2.57,-1.26 -6,-4.15 -8.82,-4.66c-3.5,-0.66 -5.15,3.11 -7.66,4.66z"/>
  <path id="svg_47" fill="#dde0e4" d="m619.21334,195.57667s21.39,-4.19 22.32,-7.62l24.46,17.27s14.72,16.49 7.19,41.73c0,0 -6.13,52.89 -18.05,72.52s-18.77,45.06 -35.1,51c0,0 -15.7,-10.12 -20.88,-10c0,0 26.59,-38.53 27.73,-53.7s13.29,-38.43 10.63,-53.15l-36,111.9s-58,-9 -63.88,-28.25c0,0 5,-7.51 4.07,-15.12s21.88,-64.86 21.88,-64.86l10.92,-59.7s21.6,-15.09 30.2,-11.17c-0.04,-0.06 -1.6,7.39 14.51,9.15z"/>
  <g id="svg_48" opacity="0.1">
   <path id="svg_49" d="m627.00334,149.15667l0,0c-5.28,-7.2 -15.35,-1.29 -17,-0.26l-2.59,-0.26c-2.26,-2.46 -9.19,-9 -15.7,-4.19l-0.28,0.21l-0.39,9.23l0.28,0.22a19.28,19.28 0 0 0 6.29,3.22a9.49,9.49 0 0 0 4.44,0.22a7.66,7.66 0 0 0 5.11,-4l1.35,0.09l1,-0.19a7.61,7.61 0 0 0 3.6,5.14c4.47,2.53 11,0 11.27,-0.05l0.34,-0.13l2.4,-8.93l-0.12,-0.32zm-3.39,8.12c-1.33,0.45 -6.35,1.93 -9.72,0a6.46,6.46 0 0 1 -3,-4.86l-0.12,-0.73l-2.19,0.45l-2.2,-0.08l-0.21,0.42a6.49,6.49 0 0 1 -4.39,3.68c-3.77,0.81 -8.13,-2.11 -9.27,-2.94l0.33,-7.8c5.66,-3.81 11.9,2.37 13.7,4.39l0.19,0.21l3.65,0.36l0.22,-0.15c0.1,-0.06 9.17,-6.15 14.34,-1.25a6.69,6.69 0 0 1 0.71,0.77l-2.04,7.53z"/>
   <path id="svg_50" d="m643.38334,153.79667l-17,-1.41l-1.4,-0.27l0.63,-2.36a6.69,6.69 0 0 0 -0.71,-0.77l2.06,0.2l13.91,1.36l2.51,3.25z"/>
  </g>
  <path id="svg_51" fill="#472727" d="m627.18334,148.51667l0,0c-5.28,-7.2 -15.35,-1.29 -17,-0.26l-2.59,-0.26c-2.26,-2.46 -9.19,-9 -15.7,-4.19l-0.28,0.21l-0.39,9.23l0.28,0.22a19.28,19.28 0 0 0 6.29,3.22a9.49,9.49 0 0 0 4.44,0.22a7.66,7.66 0 0 0 5.11,-4l1.35,0.09l1,-0.19a7.61,7.61 0 0 0 3.6,5.14c4.47,2.53 11,0 11.27,-0.05l0.34,-0.13l2.4,-8.93l-0.12,-0.32zm-3.39,8.12c-1.33,0.45 -6.35,1.93 -9.72,0a6.46,6.46 0 0 1 -3,-4.86l-0.12,-0.73l-2.19,0.45l-2.17,-0.14l-0.21,0.42a6.49,6.49 0 0 1 -4.37,3.72c-3.77,0.81 -8.13,-2.11 -9.27,-2.94l0.33,-7.8c5.66,-3.81 11.9,2.37 13.7,4.39l0.19,0.21l3.65,0.36l0.22,-0.15c0.1,-0.06 9.17,-6.15 14.34,-1.25a6.69,6.69 0 0 1 0.71,0.77l-2.09,7.55z"/>
  <path id="svg_52" fill="#472727" d="m643.54334,153.15667l-16.94,-1.41l-1.4,-0.27l0.63,-2.36a6.69,6.69 0 0 0 -0.71,-0.77l2.06,0.2l13.91,1.36l2.45,3.25z"/>
  <rect id="svg_53" fill="#6f7d95" height="119.77" width="296.9" y="258.46667" x="230.47333"/>
  <ellipse id="svg_54" fill="#4b5c7a" ry="90.67" rx="82.85" cy="366.00667" cx="366.35333"/>
  <ellipse id="svg_55" opacity="0.05" ry="90.67" rx="82.85" cy="366.00667" cx="366.35333"/>
  <ellipse id="svg_56" fill="#4b5c7a" ry="90.67" rx="82.85" cy="366.00667" cx="384.76333"/>
  <circle id="svg_57" opacity="0.05" r="36.82" cy="366.46667" cx="382.92333"/>
  <circle id="svg_58" stroke-width="2" stroke-miterlimit="10" stroke="#6f7d95" fill="none" r="11.05" cy="366.46667" cx="382.92333"/>
  <circle id="svg_59" fill="#6f7d95" r="2.76" cy="347.13667" cx="382.92333"/>
  <circle id="svg_60" fill="#6f7d95" transform="rotate(-40 -330.67666625976557,244.23667907714844) " r="2.76" cy="795.54668" cx="157.97332"/>
  <circle id="svg_61" fill="#6f7d95" transform="rotate(-80 -239.8766784667967,755.9066772460939) " r="2.76" cy="1322.22666" cx="254.41333"/>
  <circle id="svg_62" fill="#6f7d95" transform="rotate(-30 -315.5966491699219,122.10667419433592) " r="2.76" cy="702.37667" cx="170.81334"/>
  <circle id="svg_63" fill="#6f7d95" transform="rotate(-70 -328.9766540527344,627.1766967773438) " r="2.76" cy="1210.38668" cx="141.68334"/>
  <circle id="svg_64" fill="#6f7d95" transform="rotate(-20 -258.9766540527344,-7.543334960937522) " r="2.76" cy="565.49667" cx="199.30334"/>
  <circle id="svg_65" fill="#6f7d95" transform="rotate(-60 -343.94665527343744,476.4066772460938) " r="2.76" cy="1033.41666" cx="114.17333"/>
  <path id="svg_66" fill="#ff4d52" d="m980.07334,295.93667a0.05,0.05 0 0 1 0,0c-2.83,19.54 -10.7,40.93 -10.7,40.93q0.08,-2 0.1,-3.95c0,-1.68 0,-3.34 0,-5c-1,-53.86 -30.35,-87.09 -49.28,-103a106.39,106.39 0 0 0 -15.81,-11.16l51.45,0s20.24,41.33 24.46,61.57c1.22,5.68 0.88,13.01 -0.22,20.61z"/>
  <path id="svg_67" opacity="0.05" d="m980.07334,295.93667a0.05,0.05 0 0 1 0,0c-2.83,19.54 -10.7,40.93 -10.7,40.93q0.08,-2 0.1,-3.95c0,-1.68 0,-3.34 0,-5c-1,-53.86 -30.35,-87.09 -49.28,-103a106.39,106.39 0 0 0 -15.81,-11.16l51.45,0s20.24,41.33 24.46,61.57c1.22,5.68 0.88,13.01 -0.22,20.61z"/>
  <ellipse id="svg_68" fill="#4b5c7a" ry="68.96" rx="63.01" cy="297.68667" cx="892.35333"/>
  <ellipse id="svg_69" opacity="0.05" ry="68.96" rx="63.01" cy="297.68667" cx="892.35333"/>
  <ellipse id="svg_70" fill="#4b5c7a" ry="68.96" rx="63.01" cy="297.68667" cx="906.35333"/>
  <circle id="svg_71" opacity="0.05" r="28" cy="298.03667" cx="904.95333"/>
  <circle id="svg_72" stroke-width="2" stroke-miterlimit="10" stroke="#6f7d95" fill="none" r="8.4" cy="298.03667" cx="904.95333"/>
  <circle id="svg_73" fill="#6f7d95" r="2.1" cy="283.33667" cx="904.95333"/>
  <circle id="svg_74" fill="#6f7d95" transform="rotate(-40 -167.55667114257824,562.2467041015625) " r="2.1" cy="1048.47669" cx="839.51333"/>
  <circle id="svg_75" fill="#6f7d95" transform="rotate(-80 255.0333404541019,1208.3765869140627) " r="2.1" cy="1706.01663" cx="1266.38335"/>
  <circle id="svg_76" fill="#6f7d95" transform="rotate(-30 -210.05667114257818,371.9366455078125) " r="2.1" cy="880.19666" cx="795.30333"/>
  <circle id="svg_77" fill="#6f7d95" transform="rotate(-70 83.29333496093733,1070.5266113281248) " r="2.1" cy="1581.02666" cx="1076.67333"/>
  <circle id="svg_78" fill="#6f7d95" transform="rotate(-20 -203.23667907714855,168.0166778564453) " r="2.1" cy="670.76668" cx="780.73333"/>
  <circle id="svg_79" fill="#6f7d95" transform="rotate(-60 -23.53666687011719,898.4767456054688) " r="2.1" cy="1389.04673" cx="960.31333"/>
  <path id="svg_80" fill="#ff4d52" d="m31.00334,375.28667l-7.62,-59.89l90.25,0l46.39,41.33l-22.77,53.14s-91.87,-15.18 -106.25,-34.58z"/>
  <path id="svg_81" opacity="0.05" d="m160.05334,356.72667l-22.77,53.14s-91.9,-15.18 -106.28,-34.58l-0.33,-2.61l-7,-55.38l-0.07,-0.55l-0.17,-1.34l90.25,0l46.37,41.32z"/>
  <path id="svg_82" fill="#7597ce" d="m533.71334,131.52667l0,19.4s-46.64,38 -57.74,73.85a45.18,45.18 0 0 0 -2.15,18.09c4.22,39.64 -121.44,-32.06 -121.44,-32.06l5.59,-2.72c28.89,-13.93 160.73,-77.32 175.74,-76.56z"/>
  <path id="svg_83" fill="#ff4d52" d="m639.99334,225.15667s43.68,-21.46 50.69,-37.34c0.94,-2.13 1.83,-4.28 2.87,-6.37c4.33,-8.71 13.43,-29.14 8.85,-38.95c-5.9,-12.65 14.34,1.69 14.34,1.69l-11.81,59.87l-28.68,16l-37.11,5.1"/>
  <path id="svg_84" opacity="0.05" d="m639.99334,225.15667s43.68,-21.46 50.69,-37.34c0.94,-2.13 1.83,-4.28 2.87,-6.37c4.33,-8.71 13.43,-29.14 8.85,-38.95c-5.9,-12.65 14.34,1.69 14.34,1.69l-11.81,59.87l-28.68,16l-37.11,5.1"/>
  <path id="svg_85" opacity="0.05" d="m160.05334,356.72667l-22.77,53.14s-91.9,-15.18 -106.28,-34.58l-0.33,-2.61c0.37,-0.25 0.76,-0.51 1.17,-0.76c0,0 27.83,21.93 91.1,27c0,0 38,-30.37 -23.62,-64.1c0,0 -53.6,1.68 -75.68,-17.51l-0.24,-0.2l0.17,-0.35q0.22,-0.43 0.71,-1.34l89.37,0l46.4,41.31z"/>
  <path id="svg_86" opacity="0.05" d="m473.82334,242.85667c4.22,39.65 -121.44,-32.05 -121.44,-32.05l5.59,-2.72c3.7,3.94 18.47,17.23 48,15.79c19,-0.93 47.85,-0.08 70.05,0.89a45.18,45.18 0 0 0 -2.2,18.09z"/>
  <path id="svg_87" opacity="0.05" d="m527.38334,258.46667l0,119.77l-55.16,0c3.64,-27.86 1.54,-68.47 -33.84,-91.75a85.58,85.58 0 0 0 -89.3,-2.66c-23.19,13.24 -49.12,40.16 -65.6,94.41l-53,0l0,-119.77l296.9,0z"/>
  <path id="svg_88" opacity="0.05" d="m980.07334,295.93667a0.05,0.05 0 0 1 0,0c-2.08,13.22 -5.42,26.06 -10.59,37q-1,2.21 -2.18,4.31c0.13,-0.49 1.08,-3.91 2.18,-9.29c5.36,-26.2 14.53,-98.7 -46.91,-102.84c-0.8,-0.05 -1.59,-0.1 -2.38,-0.13a106.39,106.39 0 0 0 -15.81,-11.23l51.45,0s20.24,41.33 24.46,61.57c1.22,5.68 0.88,13.01 -0.22,20.61z"/>
  <path id="svg_89" fill="#ff4d52" d="m968.97334,336.42667c0.8,-2.89 29.3,-107.13 -44.73,-112.12c-75.07,-5.06 -84.35,51.45 -92.78,128.21c0,0 -237,17.71 -364.38,54.83c0,0 30.58,-83.8 -27,-121.7a85.58,85.58 0 0 0 -89.3,-2.66c-28.4,16.22 -60.93,53 -75.16,135.32l-141.72,0s-27,1.69 -36.27,-11c0,0 -38,0.84 -61.57,-19.4c0,0 -25.3,-5.06 -5.06,-17.71c0,0 28.68,21.93 91.94,27c0,0 38,-30.37 -23.62,-64.1c0,0 -54,1.69 -75.91,-17.71c0,0 7.69,-15.91 25.24,-35.16a201.5,201.5 0 0 1 88.63,-56.67a229.54,229.54 0 0 1 70.85,-10.22l148.87,-4.64s14.38,18.56 48.92,16.87s102.06,2.53 102.06,2.53l0.67,0l138.92,-6.29a88.38,88.38 0 0 0 11.81,-2.5c20.14,-5.47 58.34,-22.06 51.45,-68.39l218.46,13.5a130.92,130.92 0 0 1 24.43,3.45c11.22,2.88 21.48,8.14 18.59,17.64c-5.9,19.4 10.12,21.93 10.12,21.93s0.34,2.59 0.76,7.09c2,21.22 5.93,85.02 -14.22,121.9z"/>
  <path id="svg_90" opacity="0.05" d="m300.91334,243.70667s-91.1,0.84 -151,54l33.74,0s94.47,-24.46 117.24,-43.86l0.02,-10.14z"/>
  <path id="svg_91" fill="#ffec9f" d="m300.06334,242.85667s-91.1,0.84 -151,54l33.74,0s94.47,-24.46 117.24,-43.86l0.02,-10.14z"/>
  <path id="svg_92" opacity="0.05" d="m138.12334,224.40667l0,22.67l-76.74,35.43l-11.88,-1.43a201.5,201.5 0 0 1 88.62,-56.67z"/>
  <path id="svg_93" fill="#ffec9f" d="m137.27334,223.56667l0,22.67l-76.75,35.42l-11.88,-1.43a201.5,201.5 0 0 1 88.63,-56.66z"/>
  <path id="svg_94" fill="none" d="m246.08334,326.36667s-41.33,25.3 -45.55,81l23.62,0s9.28,-60.73 36.27,-81l-14.34,0z"/>
  <path id="svg_95" opacity="0.05" d="m246.08334,326.36667s-41.33,25.3 -45.55,81l23.62,0s9.28,-60.73 36.27,-81l-14.34,0z"/>
  <path id="svg_96" fill="none" d="m734.46334,328.05667l-214.25,25.3s-14.17,-90.2 -11.55,-125.29l138.92,-6.29a88.38,88.38 0 0 0 11.8,-2.47l0,8.37l104.59,-25.3s17.72,26.14 -29.51,125.68z"/>
  <path id="svg_97" opacity="0.05" d="m734.46334,328.05667l-214.25,25.3s-14.17,-90.2 -11.55,-125.29l138.92,-6.29a88.38,88.38 0 0 0 11.8,-2.47l0,8.37l104.59,-25.3s17.72,26.14 -29.51,125.68z"/>
  <path id="svg_98" fill="#ff4d52" d="m710.84334,126.45667s45.55,-5.9 65.79,32.9l-65.14,-2.51l-0.65,-30.39z"/>
  <path id="svg_99" fill="none" d="m773.47334,172.95667c-1.79,5.61 -0.44,11.78 9.93,16.05c8.63,3.56 18.75,-0.56 21.7,-9.41c1.72,-5.16 0.54,-11 -8.76,-15.75s-19.74,-0.69 -22.87,9.11z"/>
  <path id="svg_100" opacity="0.05" d="m773.47334,172.95667c-1.79,5.61 -0.44,11.78 9.93,16.05c8.63,3.56 18.75,-0.56 21.7,-9.41c1.72,-5.16 0.54,-11 -8.76,-15.75s-19.74,-0.69 -22.87,9.11z"/>
  <path id="svg_101" stroke-miterlimit="10" stroke="#ff4d52" fill="none" d="m25.01334,328.03667s54.06,28 92.86,17.4"/>
  <path id="svg_102" stroke-miterlimit="10" stroke="#ff4d52" fill="none" d="m26.92334,343.15667s34.93,26.94 105.53,20.68"/>
  <path id="svg_103" stroke-miterlimit="10" stroke="#ff4d52" fill="none" d="m28.53334,355.84667s34.65,30.07 105.85,20.54"/>
  <path id="svg_104" opacity="0.05" d="m774.02334,154.82667s-28.18,24.33 -53.9,35.33c0,0 39.06,6.95 53.9,-35.33z"/>
  <path id="svg_105" opacity="0.1" d="m475.48334,226.43667s133.72,12.63 184.32,0.82c0,0 2.7,1.79 -13.41,-5.43l-170.91,4.61z"/>
  <path id="svg_106" opacity="0.05" d="m983.20334,214.52667c-8.33,-5.47 -21.54,-16.82 -19.74,-29.45c0.9,-6.33 -3.58,-12.25 -9.73,-17.22c11.22,2.88 21.48,8.14 18.59,17.64c-5.9,19.4 10.12,21.93 10.12,21.93s0.33,2.6 0.76,7.1z"/>
  <path id="svg_114" opacity="0.02" d="m283.85334,272.97667l-11.25,35.71l-0.27,0.7c-1.51,0.34 -33.39,7.67 -40.27,9.92l-0.69,0l17.81,-47.15l0.51,-1.36l5.79,0.37l28.37,1.81z"/>
  <path id="svg_125" opacity="0.1" d="m307.86334,292.74667c-3.81,-2.91 -11,-7.44 -17.62,-6.44l1.16,-4.81s10.2,-3.19 13.8,0c1.32,1.16 2.23,5.73 2.66,11.25z"/>
  <path id="svg_132" opacity="0.1" d="m178.81334,225.34667s23.1,1.59 29.47,-3.19a61,61 0 0 1 -28.75,12l-0.72,-8.81z"/>
  <path id="svg_134" stroke-miterlimit="10" stroke="#ffae63" fill="none" d="m781.50334,277.98667s17.5,34.35 3.24,53.14s1.3,70 1.3,70"/>
  <path id="svg_135" fill="#ffae63" d="m786.68334,267.29667c0,6.62 -4.86,12 -4.86,12s-4.86,-5.37 -4.86,-12s4.86,-12 4.86,-12s4.86,5.38 4.86,12z"/>
  <path id="svg_136" stroke-miterlimit="10" stroke="#ffae63" fill="none" d="m790.57334,277.98667s-17.5,34.35 -3.24,53.14s-1.3,70 -1.3,70"/>
  <path id="svg_137" fill="#ffae63" d="m785.38334,267.29667c0,6.62 4.86,12 4.86,12s4.86,-5.37 4.86,-12s-4.86,-12 -4.86,-12s-4.86,5.38 -4.86,12z"/>
  <path id="svg_138" opacity="0.1" d="m785.38334,267.29667c0,6.62 4.86,12 4.86,12s4.86,-5.37 4.86,-12s-4.86,-12 -4.86,-12s-4.86,5.38 -4.86,12z"/>
  <path id="svg_139" stroke-miterlimit="10" stroke="#ffae63" fill="none" d="m797.70334,277.98667s17.5,34.35 3.24,53.14s1.3,70 1.3,70"/>
  <path id="svg_140" fill="#ffae63" d="m802.88334,267.29667c0,6.62 -4.86,12 -4.86,12s-4.86,-5.37 -4.86,-12s4.86,-12 4.86,-12s4.86,5.38 4.86,12z"/>
  <path id="svg_141" fill="#ffae63" d="m800.16334,294.81667c-4.59,4.77 -11.82,5.27 -11.82,5.27s0.22,-7.24 4.81,-12s11.82,-5.27 11.82,-5.27s-0.22,7.23 -4.81,12z"/>
  <path id="svg_142" fill="#ffae63" d="m800.61334,318.51667c-4.59,4.77 -11.82,5.27 -11.82,5.27s0.22,-7.24 4.81,-12s11.78,-5.28 11.78,-5.28s-0.18,7.23 -4.77,12.01z"/>
  <path id="svg_143" fill="#ffae63" d="m775.72334,331.54667c4.34,5 4.19,12.24 4.19,12.24s-7.19,-0.87 -11.53,-5.87s-4.19,-12.24 -4.19,-12.24s7.19,0.87 11.53,5.87z"/>
  <path id="svg_144" fill="#ffae63" d="m779.75334,281.01667c5.52,3.66 7.31,10.68 7.31,10.68s-7.17,1.08 -12.68,-2.54s-7.31,-10.68 -7.31,-10.68s7.16,-1.12 12.68,2.54z"/>
  <path id="svg_145" opacity="0.1" d="m779.75334,281.01667c5.52,3.66 7.31,10.68 7.31,10.68s-7.17,1.08 -12.68,-2.54s-7.31,-10.68 -7.31,-10.68s7.16,-1.12 12.68,2.54z"/>
  <path id="svg_146" stroke-miterlimit="10" stroke="#ffae63" fill="none" d="m806.77334,277.98667s-17.5,34.35 -3.24,53.14s-1.3,70 -1.3,70"/>
  <path id="svg_147" fill="#ffae63" d="m801.59334,267.29667c0,6.62 4.86,12 4.86,12s4.86,-5.37 4.86,-12s-4.86,-12 -4.86,-12s-4.86,5.38 -4.86,12z"/>
  <path id="svg_148" opacity="0.1" d="m801.59334,267.29667c0,6.62 4.86,12 4.86,12s4.86,-5.37 4.86,-12s-4.86,-12 -4.86,-12s-4.86,5.38 -4.86,12z"/>
  <path id="svg_149" fill="#ffae63" d="m802.99334,295.32667c-4.65,4.72 -5,12 -5,12s7.23,-0.41 11.88,-5.13s5,-12 5,-12s-7.24,0.41 -11.88,5.13z"/>
  <path id="svg_150" opacity="0.1" d="m802.99334,295.32667c-4.65,4.72 -5,12 -5,12s7.23,-0.41 11.88,-5.13s5,-12 5,-12s-7.24,0.41 -11.88,5.13z"/>
  <path id="svg_151" fill="#ffae63" d="m812.10334,328.15667c-4.65,4.72 -5,12 -5,12s7.23,-0.41 11.88,-5.13s5,-12 5,-12s-7.23,0.39 -11.88,5.13z"/>
  <path id="svg_152" stroke-miterlimit="10" stroke="#ffae63" fill="none" d="m798.69334,320.92667s10.53,-16.6 25.32,-17"/>
  <path id="svg_153" stroke-miterlimit="10" stroke="#ffae63" fill="none" d="m790.49334,310.89667s-10.53,-16.6 -25.32,-17"/>
  <path id="svg_154" stroke-miterlimit="10" stroke="#ffae63" fill="none" d="m789.12334,334.59667s10.53,-16.6 25.32,-17"/>
  <circle id="svg_155" fill="#ffae63" r="2.73" cy="303.83667" cx="823.52333"/>
  <circle id="svg_156" fill="#ffae63" r="2.73" cy="294.03667" cx="765.42333"/>
  <path id="svg_157" stroke-miterlimit="10" stroke="#ffae63" fill="none" d="m796.87334,340.06667s-10.53,-16.6 -25.32,-17"/>
  <circle id="svg_158" fill="#ffae63" r="2.73" cy="323.20667" cx="771.80333"/>
  <circle id="svg_159" fill="#ffae63" r="2.73" cy="317.73667" cx="814.64333"/>
  <path id="svg_160" fill="#a8a8a8" d="m855.09334,381.15667s-25.38,-5.08 -32.15,-11.85s-37.23,-18.58 -40.61,-10.15s-45.69,37.26 -16.95,42.33s67.69,6.77 76.15,3.38s13.56,-23.71 13.56,-23.71z"/>
  <path id="svg_161" opacity="0.2" d="m765.38334,398.34667c28.77,5.08 67.69,6.77 76.15,3.38c6.44,-2.58 10.92,-15 12.69,-20.72l0.85,0.18s-5.08,20.31 -13.54,23.69s-47.38,1.69 -76.15,-3.38c-8.3,-1.47 -10.68,-4.91 -9.78,-9.26c0.73,2.83 3.62,5.02 9.78,6.11z"/>
  <path id="svg_162" fill="#ffae63" d="m110.65334,465.81667s8.38,11 -3.87,27.5s-22.35,30.51 -18.26,40.84c0,0 18.48,-30.73 33.52,-31.16s5.15,-18.7 -11.39,-37.18z"/>
  <path id="svg_163" opacity="0.1" d="m110.65334,465.81667a13.57,13.57 0 0 1 1.71,3.44c14.68,17.24 22.49,33.33 8.39,33.74c-13.14,0.38 -28.9,23.87 -32.68,29.81a12.74,12.74 0 0 0 0.45,1.35s18.48,-30.73 33.52,-31.16s5.15,-18.7 -11.39,-37.18z"/>
  <path id="svg_164" fill="#ffd037" d="m126.23334,479.77667c0,3.86 -0.43,7 -1,7s-1,-3.13 -1,-7s0.54,-2 1.07,-2s0.93,-1.85 0.93,2z"/>
  <path id="svg_165" fill="#ffd037" d="m131.57334,484.38667c-3.39,1.85 -6.34,3 -6.59,2.49s2.28,-2.35 5.67,-4.19s2.05,-0.5 2.31,0s2,-0.15 -1.39,1.7z"/>
  <path id="svg_166" fill="#ffae63" d="m66.38334,465.81667s-8.38,11 3.87,27.5s22.35,30.51 18.26,40.83c0,0 -18.48,-30.73 -33.52,-31.16s-5.15,-18.69 11.39,-37.17z"/>
  <path id="svg_167" opacity="0.1" d="m66.38334,465.81667a13.57,13.57 0 0 0 -1.71,3.44c-14.68,17.24 -22.49,33.33 -8.39,33.74c13.14,0.38 28.9,23.87 32.68,29.81a12.74,12.74 0 0 1 -0.45,1.35s-18.48,-30.73 -33.52,-31.16s-5.15,-18.7 11.39,-37.18z"/>
  <path id="svg_168" fill="#ffd037" d="m50.80334,479.77667c0,3.86 0.43,7 1,7s1,-3.13 1,-7s-0.54,-2 -1.07,-2s-0.93,-1.85 -0.93,2z"/>
  <path id="svg_169" fill="#ffd037" d="m45.46334,484.38667c3.39,1.85 6.34,3 6.59,2.49s-2.28,-2.35 -5.67,-4.19s-2.05,-0.5 -2.31,0s-2,-0.15 1.39,1.7z"/>
  <path id="svg_170" fill="#a8a8a8" d="m53.47334,532.70667s23.43,-0.72 30.49,-5.75s36,-11 37.79,-3s35.21,40.11 8.76,40.32s-61.46,-4.12 -68.51,-8.41s-8.53,-23.16 -8.53,-23.16z"/>
  <path id="svg_171" opacity="0.2" d="m130.99334,561.50667c-26.45,0.21 -61.46,-4.12 -68.51,-8.41c-5.37,-3.27 -7.51,-15 -8.22,-20.41l-0.78,0s1.48,18.9 8.53,23.19s42.06,8.63 68.51,8.41c7.64,-0.06 10.27,-2.78 10.13,-6.8c-1.07,2.46 -3.98,3.97 -9.66,4.02z"/>
 </g>
</svg>